GIL01_fast5_ik
nRows=3
nColumns=375

# SIMM Motion File Header:
name GIL01_fast5_ik
datacolumns 375
datarows 3
otherdata 1
range 0.10833000 0.12500000
endheader
time	pelvis_tx	pelvis_ty	pelvis_tz	pelvis_tilt	pelvis_list	pelvis_rotation	hip_flexion_r	hip_adduction_r	hip_rotation_r	knee_angle_r	ankle_angle_r	hip_flexion_l	hip_adduction_l	hip_rotation_l	knee_angle_l	ankle_angle_l	lumbar_extension	lumbar_bending	lumbar_rotation	subtalar_angle_r	mtp_angle_r	subtalar_angle_l	mtp_angle_l	asis_r_px	asis_r_py	asis_r_pz	asis_l_px	asis_l_py	asis_l_pz	midasis_px	midasis_py	midasis_pz	psis_r_px	psis_r_py	psis_r_pz	psis_l_px	psis_l_py	psis_l_pz	hip_r_px	hip_r_py	hip_r_pz	hip_l_px	hip_l_py	hip_l_pz	midhip_px	midhip_py	midhip_pz	epicondLat_r_px	epicondLat_r_py	epicondLat_r_pz	epicondMed_r_px	epicondMed_r_py	epicondMed_r_pz	thighwand_r_px	thighwand_r_py	thighwand_r_pz	upperleg1_r_px	upperleg1_r_py	upperleg1_r_pz	upperleg2_r_px	upperleg2_r_py	upperleg2_r_pz	malleolusLat_r_px	malleolusLat_r_py	malleolusLat_r_pz	malleolusMedv_r_px	malleolusMedv_r_py	malleolusMedv_r_pz	shankwand_r_px	shankwand_r_py	shankwand_r_pz	lowerleg1_r_px	lowerleg1_r_py	lowerleg1_r_pz	knee_r_px	knee_r_py	knee_r_pz	ankle_r_px	ankle_r_py	ankle_r_pz	toe_r_px	toe_r_py	toe_r_pz	epicondLat_l_px	epicondLat_l_py	epicondLat_l_pz	epicondMed_l_px	epicondMed_l_py	epicondMed_l_pz	thighwand_l_px	thighwand_l_py	thighwand_l_pz	upperleg1_l_px	upperleg1_l_py	upperleg1_l_pz	upperleg2_l_px	upperleg2_l_py	upperleg2_l_pz	malleolusLat_l_px	malleolusLat_l_py	malleolusLat_l_pz	malleolusMedv_l_px	malleolusMedv_l_py	malleolusMedv_l_pz	shankwand_l_px	shankwand_l_py	shankwand_l_pz	lowerleg1_l_px	lowerleg1_l_py	lowerleg1_l_pz	knee_l_px	knee_l_py	knee_l_pz	ankle_l_px	ankle_l_py	ankle_l_pz	toe_l_px	toe_l_py	toe_l_pz	subclavicle_r_px	subclavicle_r_py	subclavicle_r_pz	subclavicle_l_px	subclavicle_l_py	subclavicle_l_pz	neck_px	neck_py	neck_pz	sternalnotch_px	sternalnotch_py	sternalnotch_pz	xyphoidprocess_px	xyphoidprocess_py	xyphoidprocess_pz	midhip_tx	midhip_ty	midhip_tz	hip_r_tx	hip_r_ty	hip_r_tz	hip_l_tx	hip_l_ty	hip_l_tz	knee_r_tx	knee_r_ty	knee_r_tz	knee_l_tx	knee_l_ty	knee_l_tz	ankle_r_tx	ankle_r_ty	ankle_r_tz	ankle_l_tx	ankle_l_ty	ankle_l_tz	midasis_tx	midasis_ty	midasis_tz	asis_r_tx	asis_r_ty	asis_r_tz	asis_l_tx	asis_l_ty	asis_l_tz	psis_r_tx	psis_r_ty	psis_r_tz	psis_l_tx	psis_l_ty	psis_l_tz	epicondLat_r_tx	epicondLat_r_ty	epicondLat_r_tz	epicondLat_l_tx	epicondLat_l_ty	epicondLat_l_tz	epicondMed_r_tx	epicondMed_r_ty	epicondMed_r_tz	epicondMed_l_tx	epicondMed_l_ty	epicondMed_l_tz	malleolusLat_r_tx	malleolusLat_r_ty	malleolusLat_r_tz	malleolusLat_l_tx	malleolusLat_l_ty	malleolusLat_l_tz	malleolusMedv_r_tx	malleolusMedv_r_ty	malleolusMedv_r_tz	malleolusMedv_l_tx	malleolusMedv_l_ty	malleolusMedv_l_tz	neck_tx	neck_ty	neck_tz	subclavicle_r_tx	subclavicle_r_ty	subclavicle_r_tz	subclavicle_l_tx	subclavicle_l_ty	subclavicle_l_tz	sternalnotch_tx	sternalnotch_ty	sternalnotch_tz	xyphoidprocess_tx	xyphoidprocess_ty	xyphoidprocess_tz	thighwand_r_tx	thighwand_r_ty	thighwand_r_tz	thighwand_l_tx	thighwand_l_ty	thighwand_l_tz	upperleg1_r_tx	upperleg1_r_ty	upperleg1_r_tz	upperleg1_l_tx	upperleg1_l_ty	upperleg1_l_tz	upperleg2_r_tx	upperleg2_r_ty	upperleg2_r_tz	upperleg2_l_tx	upperleg2_l_ty	upperleg2_l_tz	shankwand_r_tx	shankwand_r_ty	shankwand_r_tz	shankwand_l_tx	shankwand_l_ty	shankwand_l_tz	lowerleg1_r_tx	lowerleg1_r_ty	lowerleg1_r_tz	lowerleg1_l_tx	lowerleg1_l_ty	lowerleg1_l_tz	toe_r_tx	toe_r_ty	toe_r_tz	toe_l_tx	toe_l_ty	toe_l_tz	ground_force_vx	ground_force_vy	ground_force_vz	ground_force_px	ground_force_py	ground_force_pz	ground_force_vx	ground_force_vy	ground_force_vz	ground_force_px	ground_force_py	ground_force_pz	ground_torque_x	ground_torque_y	ground_torque_z	ground_torque_x	ground_torque_y	ground_torque_z	ground_marker_px	ground_marker_py	ground_marker_pz	ground_marker_px	ground_marker_py	ground_marker_pz	ground_marker_px	ground_marker_py	ground_marker_pz	ground_marker_px	ground_marker_py	ground_marker_pz	ground_marker_px	ground_marker_py	ground_marker_pz	ground_marker_px	ground_marker_py	ground_marker_pz	ground_marker_px	ground_marker_py	ground_marker_pz	ground_marker_px	ground_marker_py	ground_marker_pz	ground_marker_px	ground_marker_py	ground_marker_pz	ground_marker_px	ground_marker_py	ground_marker_pz	ground_marker_px	ground_marker_py	ground_marker_pz	ground_marker_px	ground_marker_py	ground_marker_pz	ground_marker_px	ground_marker_py	ground_marker_pz	ground_marker_px	ground_marker_py	ground_marker_pz	ground_marker_px	ground_marker_py	ground_marker_pz	ground_marker_px	ground_marker_py	ground_marker_pz	ground_marker_px	ground_marker_py	ground_marker_pz	ground_marker_px	ground_marker_py	ground_marker_pz	ground_marker_px	ground_marker_py	ground_marker_pz	ground_marker_px	ground_marker_py	ground_marker_pz	ground_marker_px	ground_marker_py	ground_marker_pz	ground_marker_px	ground_marker_py	ground_marker_pz	ground_marker_px	ground_marker_py	ground_marker_pz	ground_marker_px	ground_marker_py	ground_marker_pz	ground_marker_px	ground_marker_py	ground_marker_pz	ground_marker_px	ground_marker_py	ground_marker_pz	ground_marker_px	ground_marker_py	ground_marker_pz	ground_marker_px	ground_marker_py	ground_marker_pz	ground_marker_px	ground_marker_py	ground_marker_pz	ground_marker_px	ground_marker_py	ground_marker_pz	ground_marker_px	ground_marker_py	ground_marker_pz	ground_marker_px	ground_marker_py	ground_marker_pz	ground_marker_px	ground_marker_py	ground_marker_pz	ground_marker_px	ground_marker_py	ground_marker_pz	ground_marker_px	ground_marker_py	ground_marker_pz	ground_marker_px	ground_marker_py	ground_marker_pz	ground_marker_px	ground_marker_py	ground_marker_pz
      0.10833000	      0.55076861	      0.76558501	     -0.24233290	     -4.04818373	     -5.36167572	      3.71792873	     29.93936517	      9.25307205	      3.52793348	    -21.63567756	     -3.51439991	    -11.61776348	     -9.35518992	     -8.01504570	    -32.09582460	    -32.26620603	      5.18313292	      5.75409507	    -10.40241413	      0.00000000	      0.00000000	      0.00000000	      0.00000000	      0.57767992	      0.77449178	     -0.14129634	      0.58016794	      0.75040634	     -0.34945579	      0.56217154	      0.76470839	     -0.24307280	      0.42576735	      0.81967017	     -0.22026892	      0.42254658	      0.81300414	     -0.27491618	      0.49425185	      0.72231810	     -0.16562891	      0.48450933	      0.71022835	     -0.30145159	      0.48938059	      0.71627323	     -0.23354025	      0.62024946	      0.38812171	     -0.13936102	      0.60378551	      0.39600660	     -0.24501060	      0.68514113	      0.53777344	     -0.09698706	      0.59297097	      0.56554647	     -0.11169034	      0.61739674	      0.48395514	     -0.13474678	      0.65888935	      0.05733122	     -0.17108186	      0.66032164	      0.06156247	     -0.23112930	      0.63629628	      0.16232823	     -0.08804189	      0.63511883	      0.13110989	     -0.16457923	      0.63457044	      0.41881367	     -0.20309795	      0.65625327	      0.07029792	     -0.21833582	      0.76234243	      0.02699484	     -0.20269935	      0.35067135	      0.40319761	     -0.36765785	      0.33690300	      0.34767266	     -0.23944258	      0.55080842	      0.45749454	     -0.35852576	      0.50339873	      0.54131151	     -0.37071314	      0.41791515	      0.43610277	     -0.32979999	      0.11307430	      0.16143583	     -0.34760762	      0.13039313	      0.14213063	     -0.29800196	      0.19333759	      0.25653062	     -0.42317076	      0.16950042	      0.22513836	     -0.34891338	      0.39172589	      0.38605439	     -0.32133042	      0.13370367	      0.15087192	     -0.30461803	      0.11079770	      0.04567972	     -0.34448567	      0.51310116	      1.13173781	     -0.19058609	      0.52155859	      1.14316946	     -0.26444411	      0.40909915	      1.17588543	     -0.24797371	      0.50373961	      1.13434902	     -0.23097024	      0.54582793	      1.05834925	     -0.23548930	      0.49952900	      0.71186800	     -0.22684100	      0.49172400	      0.71343600	     -0.16032100	      0.47971600	      0.70288800	     -0.28965200	      0.63695100	      0.40152300	     -0.20356400	      0.39194000	      0.39107600	     -0.30703000	      0.65763600	      0.06639900	     -0.22316400	      0.12499600	      0.15173400	     -0.31639200	      0.55789200	      0.77402700	     -0.23705900	      0.56698400	      0.78201300	     -0.13913700	      0.54880000	      0.76604100	     -0.33498100	      0.40354100	      0.82229800	     -0.19351300	      0.39786400	      0.81815300	     -0.24842500	      0.64880400	      0.39960100	     -0.14989000	      0.38178000	      0.39690200	     -0.36025700	      0.63043000	      0.40236800	     -0.24558000	      0.40064700	      0.36353300	     -0.25438000	      0.65786000	      0.06422300	     -0.18572800	      0.11810900	      0.16079200	     -0.35159800	      0.66370600	      0.06722100	     -0.24817100	      0.12476900	      0.15265100	     -0.28628600	      0.40609500	      1.17910100	     -0.24675200	      0.51799300	      1.13282800	     -0.19431500	      0.52325700	      1.13526500	     -0.27064300	      0.50629300	      1.13115200	     -0.23495900	      0.54377000	      1.05274000	     -0.23246700	      0.70482100	      0.54857200	     -0.10075900	      0.56875300	      0.47643000	     -0.33858400	      0.60654900	      0.56805500	     -0.11122000	      0.50909900	      0.55051100	     -0.35539100	      0.63806900	      0.49230600	     -0.13508800	      0.47793100	      0.46875600	     -0.35115100	      0.65431100	      0.16719100	     -0.10340300	      0.21637400	      0.23931000	     -0.42601200	      0.64817400	      0.13766800	     -0.18078300	      0.17966700	      0.21766800	     -0.35231300	      0.75729500	      0.03708600	     -0.20191300	      0.11559600	      0.04736100	     -0.30812200	   -100.43611191	    507.48490654	     -5.24107467	      0.65205225	      0.00000000	     -0.21319620	      0.00000000	      0.00000000	      0.00000000	      1.10133521	      0.00000000	     -0.27090283	      0.00000000	     -1.76647412	      0.00000000	      0.00000000	      0.00000000	      0.00000000	      0.49952859	      0.71186781	     -0.22684097	      0.49172422	      0.71343583	     -0.16032068	      0.47971603	      0.70288825	     -0.28965235	      0.63695103	      0.40152317	     -0.20356353	      0.39193958	      0.39107585	     -0.30703047	      0.65763587	      0.06639867	     -0.22316378	      0.12499617	      0.15173352	     -0.31639156	      0.55789191	      0.77402675	     -0.23705906	      0.56698376	      0.78201276	     -0.13913693	      0.54880005	      0.76604074	     -0.33498120	      0.40354121	      0.82229751	     -0.19351336	      0.39786407	      0.81815338	     -0.24842525	      0.64880407	      0.39960083	     -0.14989033	      0.38178012	      0.39690223	     -0.36025724	      0.63042992	      0.40236801	     -0.24557953	      0.40064728	      0.36353278	     -0.25437954	      0.65785968	      0.06422297	     -0.18572763	      0.11810865	      0.16079231	     -0.35159811	      0.66370565	      0.06722110	     -0.24817149	      0.12476868	      0.15265130	     -0.28628612	      0.40609518	      1.17910099	     -0.24675171	      0.51799291	      1.13282764	     -0.19431497	      0.52325702	      1.13526523	     -0.27064314	      0.50629324	      1.13115168	     -0.23495895	      0.54376972	      1.05274010	     -0.23246653	      0.70482063	      0.54857183	     -0.10075921	      0.56875265	      0.47642973	     -0.33858368	      0.60654908	      0.56805497	     -0.11121997	      0.50909936	      0.55051064	     -0.35539094	      0.63806897	      0.49230573	     -0.13508816	      0.47793150	      0.46875629	     -0.35115141	      0.65431070	      0.16719057	     -0.10340287	      0.21637441	      0.23931010	     -0.42601249	      0.64817393	      0.13766845	     -0.18078297	      0.17966700	      0.21766774	     -0.35231283	      0.75729549	      0.03708584	     -0.20191327	      0.11559628	      0.04736117	     -0.30812165
      0.11667000	      0.56239659	      0.76713621	     -0.24128796	     -4.10842765	     -5.63505835	      3.74852331	     29.27088200	      9.68763350	      2.80249518	    -21.91926555	     -2.57756962	     -9.41777725	     -9.77881485	     -7.36297314	    -35.39901727	    -35.90131233	      5.15934233	      6.02027823	    -10.41840432	      0.00000000	      0.00000000	      0.00000000	      0.00000000	      0.58940579	      0.77649015	     -0.14031795	      0.59168576	      0.75141951	     -0.34836342	      0.57379790	      0.76624351	     -0.24203359	      0.43747422	      0.82146298	     -0.21937126	      0.43419846	      0.81454260	     -0.27398363	      0.50589916	      0.72429437	     -0.16433155	      0.49602489	      0.71157429	     -0.30008714	      0.50096203	      0.71793433	     -0.23220934	      0.62668350	      0.38809187	     -0.13919886	      0.61123438	      0.39690033	     -0.24492871	      0.69343321	      0.53648258	     -0.09530356	      0.60181434	      0.56572276	     -0.11059607	      0.62521794	      0.48392559	     -0.13398105	      0.65896557	      0.05690528	     -0.17244075	      0.66097965	      0.06143519	     -0.23244969	      0.63776050	      0.16187370	     -0.08899956	      0.63660269	      0.13110315	     -0.16571832	      0.64205275	      0.41896751	     -0.20262174	      0.65697840	      0.07017942	     -0.21964106	      0.76270986	      0.02635328	     -0.20306722	      0.37389476	      0.40008360	     -0.36806894	      0.36104842	      0.34379558	     -0.24009092	      0.57186241	      0.46152605	     -0.35711304	      0.52157049	      0.54361119	     -0.36953271	      0.43958688	      0.43529763	     -0.32956942	      0.13223924	      0.16474163	     -0.34697965	      0.14903566	      0.14542726	     -0.29719823	      0.21462925	      0.25763861	     -0.42298649	      0.18996939	      0.22725803	     -0.34857712	      0.41539659	      0.38375020	     -0.32152653	      0.15254177	      0.15405257	     -0.30386558	      0.12121400	      0.04990567	     -0.34062843	      0.52538606	      1.13330108	     -0.18987498	      0.53381956	      1.14470853	     -0.26373947	      0.42143121	      1.17763536	     -0.24720411	      0.51600469	      1.13592506	     -0.23025369	      0.55794891	      1.05984668	     -0.23478969	      0.51145600	      0.71319300	     -0.22508200	      0.50330200	      0.71488700	     -0.15897000	      0.49097100	      0.70378100	     -0.28822500	      0.64381400	      0.40180000	     -0.20347300	      0.41459200	      0.38848500	     -0.30705100	      0.65838000	      0.06626500	     -0.22324900	      0.14401100	      0.15596500	     -0.31711100	      0.56933600	      0.77508100	     -0.23613500	      0.57868500	      0.78350200	     -0.13813800	      0.55998700	      0.76666100	     -0.33413200	      0.41530900	      0.82374500	     -0.19259400	      0.40954900	      0.81907500	     -0.24752800	      0.65528400	      0.39930900	     -0.14974000	      0.40457100	      0.39409400	     -0.36032700	      0.63795000	      0.40225200	     -0.24546800	      0.42455900	      0.35948700	     -0.25445600	      0.65808300	      0.06404600	     -0.18581600	      0.13732500	      0.16526700	     -0.35229300	      0.66394300	      0.06699700	     -0.24828700	      0.14279000	      0.15721900	     -0.28680300	      0.41827700	      1.18068700	     -0.24595000	      0.53023200	      1.13427100	     -0.19367700	      0.53572300	      1.13663400	     -0.26994000	      0.51865000	      1.13257000	     -0.23432800	      0.55603500	      1.05412100	     -0.23165500	      0.71342100	      0.54649000	     -0.09926000	      0.58862900	      0.47888000	     -0.33744200	      0.61548400	      0.56750100	     -0.11048000	      0.52631900	      0.55079600	     -0.35453900	      0.64597200	      0.49159100	     -0.13441600	      0.49826500	      0.46768900	     -0.35059400	      0.65543200	      0.16707500	     -0.10353000	      0.23670100	      0.24145600	     -0.42645600	      0.64951100	      0.13772100	     -0.18093700	      0.20005000	      0.22008800	     -0.35279400	      0.75751800	      0.03684300	     -0.20213400	      0.12600600	      0.05177900	     -0.30884600	    -95.89631717	    514.17788962	     -4.87607025	      0.65304175	      0.00000000	     -0.21317700	      0.00000000	      0.00000000	      0.00000000	      1.10223877	      0.00000000	     -0.27032166	      0.00000000	     -1.80088818	      0.00000000	      0.00000000	      0.00000000	      0.00000000	      0.51145607	      0.71319294	     -0.22508177	      0.50330210	      0.71488714	     -0.15897031	      0.49097085	      0.70378095	     -0.28822479	      0.64381409	      0.40179965	     -0.20347281	      0.41459239	      0.38848487	     -0.30705073	      0.65837979	      0.06626498	     -0.22324927	      0.14401078	      0.15596487	     -0.31711096	      0.56933630	      0.77508110	     -0.23613495	      0.57868540	      0.78350151	     -0.13813819	      0.55998713	      0.76666069	     -0.33413172	      0.41530940	      0.82374460	     -0.19259442	      0.40954939	      0.81907523	     -0.24752820	      0.65528369	      0.39930949	     -0.14973970	      0.40457055	      0.39409363	     -0.36032695	      0.63795048	      0.40225211	     -0.24546841	      0.42455935	      0.35948727	     -0.25445560	      0.65808302	      0.06404579	     -0.18581617	      0.13732485	      0.16526739	     -0.35229278	      0.66394252	      0.06699706	     -0.24828696	      0.14279024	      0.15721938	     -0.28680328	      0.41827717	      1.18068719	     -0.24594985	      0.53023171	      1.13427067	     -0.19367696	      0.53572279	      1.13663363	     -0.26993957	      0.51864982	      1.13257039	     -0.23432845	      0.55603498	      1.05412126	     -0.23165503	      0.71342051	      0.54648989	     -0.09926027	      0.58862865	      0.47888029	     -0.33744156	      0.61548430	      0.56750095	     -0.11048018	      0.52631879	      0.55079639	     -0.35453930	      0.64597231	      0.49159119	     -0.13441584	      0.49826461	      0.46768913	     -0.35059398	      0.65543211	      0.16707511	     -0.10352996	      0.23670094	      0.24145585	     -0.42645597	      0.64951098	      0.13772056	     -0.18093722	      0.20004979	      0.22008780	     -0.35279432	      0.75751752	      0.03684288	     -0.20213428	      0.12600563	      0.05177940	     -0.30884635
      0.12500000	      0.57363154	      0.76879034	     -0.24057500	     -4.21872538	     -5.84357878	      3.77990671	     28.57128431	     10.00121521	      2.18766750	    -22.00224223	     -1.74887193	     -7.04611001	    -10.05836010	     -6.77452605	    -38.75590095	    -38.25037570	      5.10902186	      6.26211679	    -10.35403638	      0.00000000	      0.00000000	      0.00000000	      0.00000000	      0.60074111	      0.77845310	     -0.13966099	      0.60280268	      0.75263141	     -0.34761686	      0.58503045	      0.76787238	     -0.24132659	      0.44883472	      0.82344283	     -0.21875307	      0.44550096	      0.81633297	     -0.27333758	      0.51711192	      0.72633702	     -0.16341983	      0.50710237	      0.71314934	     -0.29912088	      0.51210714	      0.71974318	     -0.23127036	      0.63233625	      0.38813891	     -0.13896530	      0.61786478	      0.39768914	     -0.24476906	      0.70108669	      0.53523967	     -0.09383363	      0.61006770	      0.56600700	     -0.10970125	      0.63235255	      0.48395824	     -0.13329680	      0.65911484	      0.05662961	     -0.17346134	      0.66167731	      0.06138973	     -0.23343153	      0.63907705	      0.16157939	     -0.08970881	      0.63798798	      0.13117378	     -0.16657393	      0.64871040	      0.41906094	     -0.20211924	      0.65772779	      0.07014523	     -0.22061454	      0.76312771	      0.02587662	     -0.20312988	      0.39739309	      0.39735782	     -0.36842698	      0.38590109	      0.34036422	     -0.24063259	      0.59279573	      0.46629480	     -0.35610238	      0.53948351	      0.54642382	     -0.36869770	      0.46144807	      0.43497816	     -0.32944796	      0.15210420	      0.16826924	     -0.34577881	      0.16850446	      0.14899057	     -0.29585168	      0.23630733	      0.25900534	     -0.42240645	      0.21103538	      0.22964251	     -0.34779415	      0.43944212	      0.38192826	     -0.32174864	      0.17217954	      0.15749831	     -0.30257882	      0.13479797	      0.05456817	     -0.33703917	      0.53778769	      1.13494636	     -0.18927796	      0.54611748	      1.14636765	     -0.26315208	      0.43386486	      1.17963917	     -0.24638634	      0.52833834	      1.13762198	     -0.22963743	      0.57003406	      1.06141440	     -0.23429397	      0.52299100	      0.71455600	     -0.22321400	      0.51439000	      0.71642000	     -0.15796400	      0.50174800	      0.70486200	     -0.28714900	      0.64992600	      0.40196400	     -0.20311600	      0.43767600	      0.38658100	     -0.30693800	      0.65907800	      0.06616100	     -0.22322100	      0.16384600	      0.16061800	     -0.31770600	      0.58035100	      0.77622000	     -0.23549700	      0.58995100	      0.78499600	     -0.13739900	      0.57075200	      0.76744300	     -0.33359400	      0.42686700	      0.82539200	     -0.19163700	      0.42100400	      0.82017800	     -0.24651200	      0.66102300	      0.39902400	     -0.14932800	      0.42767200	      0.39190900	     -0.36024600	      0.64665800	      0.40302200	     -0.24554000	      0.44853400	      0.35659400	     -0.25360100	      0.65816700	      0.06389600	     -0.18580100	      0.15748000	      0.17001000	     -0.35292300	      0.66410800	      0.06684800	     -0.24830900	      0.16172800	      0.16255100	     -0.28714700	      0.43043100	      1.18245200	     -0.24515800	      0.54269500	      1.13581800	     -0.19317700	      0.54812600	      1.13813400	     -0.26937100	      0.53107700	      1.13411000	     -0.23378200	      0.56837300	      1.05561900	     -0.23109700	      0.72148900	      0.54463000	     -0.09770600	      0.60840700	      0.48190900	     -0.33664200	      0.62348100	      0.56736500	     -0.10934300	      0.54336800	      0.55158400	     -0.35380100	      0.65398700	      0.49123700	     -0.13369900	      0.51822200	      0.46715400	     -0.34979400	      0.65600400	      0.16690900	     -0.10347000	      0.25814200	      0.24368300	     -0.42674400	      0.65034700	      0.13753200	     -0.18109600	      0.22142100	      0.22273900	     -0.35317200	      0.75763700	      0.03665900	     -0.20219100	      0.13934700	      0.05676000	     -0.30991700	    -89.48713427	    519.27206468	     -3.87771812	      0.65392145	      0.00000000	     -0.21316299	      0.00000000	      0.00000000	      0.00000000	      1.10333289	      0.00000000	     -0.26960873	      0.00000000	     -1.80479419	      0.00000000	      0.00000000	      0.00000000	      0.00000000	      0.52299088	      0.71455622	     -0.22321385	      0.51438993	      0.71642011	     -0.15796380	      0.50174844	      0.70486236	     -0.28714871	      0.64992601	      0.40196401	     -0.20311621	      0.43767598	      0.38658062	     -0.30693775	      0.65907836	      0.06616136	     -0.22322100	      0.16384552	      0.16061796	     -0.31770551	      0.58035135	      0.77621961	     -0.23549654	      0.58995074	      0.78499603	     -0.13739887	      0.57075191	      0.76744312	     -0.33359420	      0.42686734	      0.82539165	     -0.19163725	      0.42100447	      0.82017767	     -0.24651186	      0.66102320	      0.39902365	     -0.14932767	      0.42767185	      0.39190897	     -0.36024606	      0.64665830	      0.40302157	     -0.24553953	      0.44853446	      0.35659373	     -0.25360134	      0.65816748	      0.06389613	     -0.18580057	      0.15747984	      0.17001034	     -0.35292286	      0.66410816	      0.06684830	     -0.24830881	      0.16172849	      0.16255112	     -0.28714702	      0.43043122	      1.18245161	     -0.24515815	      0.54269469	      1.13581824	     -0.19317712	      0.54812551	      1.13813424	     -0.26937130	      0.53107744	      1.13411009	     -0.23378208	      0.56837291	      1.05561852	     -0.23109749	      0.72148919	      0.54463029	     -0.09770591	      0.60840702	      0.48190928	     -0.33664170	      0.62348056	      0.56736523	     -0.10934304	      0.54336828	      0.55158395	     -0.35380059	      0.65398657	      0.49123678	     -0.13369864	      0.51822227	      0.46715352	     -0.34979352	      0.65600407	      0.16690932	     -0.10347024	      0.25814211	      0.24368304	     -0.42674407	      0.65034693	      0.13753164	     -0.18109612	      0.22142074	      0.22273913	     -0.35317224	      0.75763655	      0.03665897	     -0.20219131	      0.13934657	      0.05676024	     -0.30991676
